<svg width="127" height="122" viewBox="0 0 127 122" fill="none" xmlns="http://www.w3.org/2000/svg">
<g clip-path="url(#clip0_8_8478)">
<path d="M108.188 1.82031H86.4082V30.1437H108.188V1.82031Z" fill="#F4F4F4"/>
<path d="M108.188 30.1436H108.895V1.82021H108.188V30.1436Z" fill="#F4F4F4"/>
<path opacity="0.05" d="M108.188 30.1436H108.895V1.82021H108.188V30.1436Z" fill="#292A2E"/>
<path opacity="0.05" d="M104.221 6.97949H90.3757V24.984H104.221V6.97949Z" fill="#292A2E"/>
<path opacity="0.03" d="M104.221 6.97949H103.499V24.984H104.221V6.97949Z" fill="#292A2E"/>
<path d="M126.001 37.1094H108.188V55.069H126.001V37.1094Z" fill="#F4F4F4"/>
<path opacity="0.05" d="M122.756 40.3809H111.433V51.7973H122.756V40.3809Z" fill="#292A2E"/>
<path d="M126.001 55.0684H126.707V37.1088H126.001V55.0684Z" fill="#F4F4F4"/>
<path opacity="0.05" d="M126.001 55.0684H126.707V37.1088H126.001V55.0684Z" fill="#292A2E"/>
<path opacity="0.03" d="M122.756 40.3809H122.035V51.7973H122.756V40.3809Z" fill="#292A2E"/>
<path d="M61.7006 0H2.36382V59.2824H61.7006V0Z" fill="#F4F4F4"/>
<path d="M62.3807 0H61.7006V59.2824H62.3807V0Z" fill="#F4F4F4"/>
<path opacity="0.05" d="M62.3807 0H61.7006V59.2824H62.3807V0Z" fill="#292A2E"/>
<path opacity="0.05" d="M47.3259 40.85V25.3398H34.6091V34.3509H14.9107V50.3062H6.53865V59.282H14.9107H16.5237H58.8463V40.85H47.3259Z" fill="#292A2E"/>
<path opacity="0.34" d="M45.5021 27.0244H36.2415V28.7085H45.5021V27.0244Z" fill="#FFFFFA"/>
<path opacity="0.34" d="M45.5021 30.5137H36.2415V32.1977H45.5021V30.5137Z" fill="#FFFFFA"/>
<path opacity="0.34" d="M45.5021 34.0039H36.2415V35.6879H45.5021V34.0039Z" fill="#FFFFFA"/>
<path opacity="0.34" d="M57.2041 42.4854H55.4972V44.1694H57.2041V42.4854Z" fill="#FFFFFA"/>
<path opacity="0.34" d="M57.2041 45.9746H55.4972V47.6586H57.2041V45.9746Z" fill="#FFFFFA"/>
<path opacity="0.34" d="M57.2041 49.4648H55.4972V51.1489H57.2041V49.4648Z" fill="#FFFFFA"/>
<path opacity="0.34" d="M54.0465 42.4854H52.3396V44.1694H54.0465V42.4854Z" fill="#FFFFFA"/>
<path opacity="0.34" d="M54.0465 45.9746H52.3396V47.6586H54.0465V45.9746Z" fill="#FFFFFA"/>
<path opacity="0.34" d="M54.0465 49.4648H52.3396V51.1489H54.0465V49.4648Z" fill="#FFFFFA"/>
<path opacity="0.34" d="M50.9742 42.4854H49.2673V44.1694H50.9742V42.4854Z" fill="#FFFFFA"/>
<path opacity="0.34" d="M50.9742 45.9746H49.2673V47.6586H50.9742V45.9746Z" fill="#FFFFFA"/>
<path opacity="0.34" d="M50.9742 49.4648H49.2673V51.1489H50.9742V49.4648Z" fill="#FFFFFA"/>
<path d="M61.7006 29.3086H49.761V0H48.7737V29.3086H16.5237V0H15.5362V29.3086H2.36382V30.2952H15.5362V59.2824H16.5237V30.2952H48.7737V59.2824H49.761V30.2952H61.7006V29.3086Z" fill="white"/>
<path d="M64.0644 59.2109H0V61.1824H64.0644V59.2109Z" fill="#F4F4F4"/>
<path opacity="0.1" d="M64.0644 59.2109H0V61.1824H64.0644V59.2109Z" fill="#292A2E"/>
<path opacity="0.1" d="M64.9893 59.2109H64.0644V61.1824H64.9893V59.2109Z" fill="#292A2E"/>
<path opacity="0.1" d="M64.9893 59.2109H64.0644V61.1824H64.9893V59.2109Z" fill="#292A2E"/>
<path opacity="0.05" d="M95.3864 119.493H92.0903V121.692H95.3864V119.493Z" fill="#292A2E"/>
<path opacity="0.05" d="M116.078 119.493H112.782V121.692H116.078V119.493Z" fill="#292A2E"/>
<path d="M119.099 85.9854H89.0689V119.493H119.099V85.9854Z" fill="#F4F4F4"/>
<path opacity="0.03" d="M119.099 85.9854H89.0689V119.493H119.099V85.9854Z" fill="#292A2E"/>
<path d="M111.124 85.9854H81.0934V119.493H111.124V85.9854Z" fill="#F4F4F4"/>
<path opacity="0.05" d="M87.4109 119.493H84.1148V121.692H87.4109V119.493Z" fill="#292A2E"/>
<path opacity="0.05" d="M108.102 119.493H104.806V121.692H108.102V119.493Z" fill="#292A2E"/>
<path opacity="0.7" d="M109.508 88.0576H82.7088V96.556H109.508V88.0576Z" fill="white"/>
<path opacity="0.7" d="M109.508 98.6357H82.7088V107.134H109.508V98.6357Z" fill="white"/>
<path opacity="0.7" d="M109.508 109.214H82.7088V117.712H109.508V109.214Z" fill="white"/>
<path opacity="0.05" d="M96.1086 93.4955C96.7659 93.4955 97.2988 92.9631 97.2988 92.3064C97.2988 91.6496 96.7659 91.1172 96.1086 91.1172C95.4512 91.1172 94.9183 91.6496 94.9183 92.3064C94.9183 92.9631 95.4512 93.4955 96.1086 93.4955Z" fill="#292A2E"/>
<path opacity="0.05" d="M96.1086 104.074C96.7659 104.074 97.2988 103.541 97.2988 102.884C97.2988 102.228 96.7659 101.695 96.1086 101.695C95.4512 101.695 94.9183 102.228 94.9183 102.884C94.9183 103.541 95.4512 104.074 96.1086 104.074Z" fill="#292A2E"/>
<path opacity="0.05" d="M96.1086 114.653C96.7659 114.653 97.2988 114.12 97.2988 113.464C97.2988 112.807 96.7659 112.274 96.1086 112.274C95.4512 112.274 94.9183 112.807 94.9183 113.464C94.9183 114.12 95.4512 114.653 96.1086 114.653Z" fill="#292A2E"/>
<path d="M14.114 105.414C14.0974 105.414 14.0809 105.411 14.0656 105.405C14.0502 105.399 14.0363 105.389 14.0245 105.377C13.8462 105.199 13.5554 101.93 12.7724 92.1966C12.452 88.2139 12.1493 84.452 11.9284 82.1659C11.9127 82.0026 11.8493 81.9836 11.8286 81.9773C11.5262 81.8862 10.6068 82.6105 10.0935 83.2449C10.0724 83.271 10.0417 83.2876 10.0083 83.2912C9.97494 83.2947 9.9415 83.2848 9.91538 83.2637C9.88926 83.2426 9.8726 83.212 9.86907 83.1786C9.86553 83.1453 9.87541 83.1119 9.89652 83.0858C10.236 82.6664 11.3424 81.567 11.9013 81.7351C12.014 81.7689 12.1545 81.8669 12.1798 82.1416C12.401 84.4297 12.7036 88.1925 13.0241 92.1764C13.5 98.0912 14.039 104.792 14.2162 105.214C14.2297 105.233 14.2378 105.255 14.2396 105.279C14.2413 105.302 14.2366 105.325 14.226 105.346C14.2153 105.366 14.1992 105.384 14.1793 105.396C14.1595 105.408 14.1367 105.414 14.1134 105.414H14.114Z" fill="#494949"/>
<path d="M11.6032 86.3614C13.7037 84.6792 14.3999 82.061 13.1582 80.5133C11.9165 78.9657 9.20713 79.0747 7.10663 80.7569C5.00613 82.4391 4.30994 85.0574 5.55165 86.605C6.79335 88.1526 9.50274 88.0436 11.6032 86.3614Z" fill="#0CBC8B"/>
<path opacity="0.2" d="M11.6032 86.3614C13.7037 84.6792 14.3999 82.061 13.1582 80.5133C11.9165 78.9657 9.20713 79.0747 7.10663 80.7569C5.00613 82.4391 4.30994 85.0574 5.55165 86.605C6.79335 88.1526 9.50274 88.0436 11.6032 86.3614Z" fill="white"/>
<path d="M6.1403 86.9979C6.12829 86.9979 6.11652 86.9945 6.10638 86.9881C6.09624 86.9816 6.08814 86.9725 6.08302 86.9616C6.07791 86.9507 6.076 86.9386 6.07751 86.9267C6.07903 86.9148 6.0839 86.9036 6.09157 86.8943L12.0778 79.682C12.0831 79.6757 12.0896 79.6704 12.097 79.6665C12.1044 79.6626 12.1124 79.6602 12.1207 79.6595C12.129 79.6587 12.1373 79.6596 12.1453 79.662C12.1532 79.6645 12.1606 79.6685 12.167 79.6738C12.1734 79.6791 12.1787 79.6856 12.1826 79.6929C12.1864 79.7003 12.1888 79.7083 12.1896 79.7166C12.1904 79.7249 12.1895 79.7332 12.187 79.7411C12.1846 79.7491 12.1806 79.7565 12.1753 79.7629L6.18904 86.975C6.1831 86.9822 6.17565 86.988 6.16723 86.9919C6.1588 86.9959 6.14961 86.9979 6.1403 86.9979Z" fill="white"/>
<path d="M15.4194 103.869C15.4052 103.869 15.3912 103.866 15.3778 103.861C15.3461 103.85 15.3201 103.827 15.3055 103.797C15.2908 103.767 15.2888 103.732 15.2999 103.7L17.5485 97.2397C17.6147 97.0499 17.7275 96.8797 17.8766 96.7447C18.0257 96.6097 18.2063 96.5143 18.4019 96.4671C18.5975 96.42 18.8018 96.4226 18.9961 96.4747C19.1904 96.5269 19.3685 96.6269 19.5141 96.7657L20.7029 97.9002C20.7272 97.9234 20.7413 97.9553 20.7421 97.9888C20.7428 98.0223 20.7302 98.0548 20.707 98.0791C20.6839 98.1034 20.652 98.1174 20.6184 98.1182C20.5848 98.119 20.5523 98.1064 20.528 98.0832L19.3393 96.9485C19.2243 96.839 19.0837 96.76 18.9303 96.7189C18.7769 96.6777 18.6156 96.6756 18.4612 96.7128C18.3068 96.7501 18.1642 96.8254 18.0465 96.932C17.9288 97.0385 17.8397 97.1729 17.7875 97.3228L15.539 103.784C15.5303 103.808 15.5142 103.83 15.4927 103.845C15.4713 103.86 15.4457 103.869 15.4194 103.869Z" fill="#494949"/>
<path d="M24.0239 101.477C25.5806 100.246 25.4881 97.5387 23.8173 95.4298C22.1465 93.3209 19.5301 92.6093 17.9735 93.8404C16.4168 95.0714 16.5093 97.7789 18.1801 99.8878C19.8509 101.997 22.4672 102.708 24.0239 101.477Z" fill="#0CBC8B"/>
<path d="M13.0923 105.003C13.0638 105.003 13.0362 104.993 13.0139 104.976C12.9916 104.958 12.9758 104.933 12.9692 104.906L9.19564 89.1423C9.16982 89.0349 9.11487 88.9367 9.03681 88.8584C8.95875 88.7802 8.86061 88.7249 8.75317 88.6988C8.64574 88.6727 8.53317 88.6766 8.42784 88.7102C8.32252 88.7439 8.2285 88.8058 8.15614 88.8894L6.99284 90.2323C6.98213 90.2454 6.9689 90.2562 6.95394 90.2641C6.93898 90.272 6.92259 90.2768 6.90574 90.2782C6.88889 90.2797 6.87191 90.2777 6.85582 90.2725C6.83973 90.2673 6.82485 90.2589 6.81206 90.2479C6.79927 90.2368 6.78883 90.2233 6.78135 90.2082C6.77387 90.193 6.7695 90.1765 6.76851 90.1596C6.76752 90.1428 6.76993 90.1259 6.77558 90.1099C6.78124 90.094 6.79003 90.0794 6.80145 90.0669L7.96462 88.724C8.06744 88.6052 8.20106 88.517 8.35077 88.4692C8.50048 88.4214 8.66049 88.4158 8.8132 88.453C8.96591 88.4901 9.1054 88.5687 9.21633 88.6799C9.32726 88.7911 9.40534 88.9308 9.44197 89.0835L13.2153 104.847C13.2231 104.88 13.2176 104.914 13.2 104.943C13.1825 104.971 13.1543 104.992 13.1216 104.999C13.112 105.002 13.1021 105.003 13.0923 105.003Z" fill="#494949"/>
<path d="M11.6999 93.7339C12.1586 91.0837 10.9446 88.6612 8.98834 88.3233C7.03207 87.9853 5.07433 89.8597 4.61562 92.5099C4.1569 95.1602 5.3709 97.5826 7.32717 97.9206C9.28344 98.2585 11.2412 96.3841 11.6999 93.7339Z" fill="#0CBC8B"/>
<path d="M14.114 105.415C14.1088 105.415 14.1036 105.415 14.0984 105.414C14.0819 105.412 14.066 105.407 14.0515 105.399C14.037 105.39 14.0243 105.379 14.0141 105.366C14.0038 105.353 13.9963 105.338 13.9918 105.322C13.9874 105.306 13.9862 105.29 13.9882 105.273L16.3978 85.7265C16.4241 85.5136 16.5114 85.3128 16.6491 85.1482C16.7869 84.9837 16.9693 84.8624 17.1744 84.7989C17.3795 84.7354 17.5986 84.7325 17.8054 84.7904C18.0121 84.8484 18.1977 84.9647 18.3399 85.1255L21.0941 88.2421C21.1051 88.2545 21.1135 88.269 21.1189 88.2847C21.1243 88.3004 21.1266 88.3171 21.1255 88.3337C21.1245 88.3502 21.1202 88.3665 21.1129 88.3814C21.1056 88.3963 21.0954 88.4096 21.0829 88.4206C21.0705 88.4316 21.056 88.4401 21.0402 88.4455C21.0245 88.4508 21.0079 88.4531 20.9913 88.4521C20.9747 88.451 20.9584 88.4467 20.9435 88.4394C20.9286 88.4321 20.9152 88.422 20.9042 88.4095L18.15 85.293C18.0402 85.1687 17.8967 85.0787 17.7369 85.0339C17.5771 84.9891 17.4078 84.9914 17.2492 85.0405C17.0907 85.0895 16.9497 85.1833 16.8433 85.3105C16.7368 85.4377 16.6694 85.5929 16.6491 85.7575L14.2395 105.304C14.2357 105.334 14.2209 105.363 14.1978 105.383C14.1747 105.404 14.1449 105.415 14.114 105.415Z" fill="#494949"/>
<path d="M23.9186 89.973C24.8796 88.2374 23.7489 85.775 21.3933 84.4732C19.0376 83.1714 16.349 83.523 15.388 85.2587C14.4271 86.9943 15.5577 89.4567 17.9134 90.7585C20.269 92.0604 22.9577 91.7087 23.9186 89.973Z" fill="#0CBC8B"/>
<path opacity="0.2" d="M24.0239 101.477C25.5806 100.246 25.4881 97.5387 23.8173 95.4298C22.1465 93.3209 19.5301 92.6093 17.9735 93.8404C16.4168 95.0714 16.5093 97.7789 18.1801 99.8878C19.8509 101.997 22.4672 102.708 24.0239 101.477Z" fill="white"/>
<path opacity="0.5" d="M11.6999 93.7339C12.1586 91.0837 10.9446 88.6612 8.98834 88.3233C7.03207 87.9853 5.07433 89.8597 4.61562 92.5099C4.1569 95.1602 5.3709 97.5826 7.32717 97.9206C9.28344 98.2585 11.2412 96.3841 11.6999 93.7339Z" fill="white"/>
<path opacity="0.5" d="M23.9186 89.973C24.8796 88.2374 23.7489 85.775 21.3933 84.4732C19.0376 83.1714 16.349 83.523 15.388 85.2587C14.4271 86.9943 15.5577 89.4567 17.9134 90.7585C20.269 92.0604 22.9577 91.7087 23.9186 89.973Z" fill="white"/>
<path d="M17.1958 122H11.0317L10.0102 102.296H18.2172L17.1958 122Z" fill="#292A2E"/>
<path opacity="0.3" d="M17.1958 122H11.0317L10.0102 102.296H18.2172L17.1958 122Z" fill="white"/>
<path d="M24.0243 101.54C24.0148 101.54 24.0054 101.538 23.9968 101.533C23.9882 101.529 23.9806 101.523 23.9747 101.516L17.924 93.8789C17.9189 93.8724 17.9151 93.8649 17.9128 93.8569C17.9105 93.8489 17.9098 93.8406 17.9108 93.8323C17.9117 93.8241 17.9143 93.8161 17.9184 93.8088C17.9224 93.8016 17.9278 93.7952 17.9344 93.79C17.9409 93.7849 17.9484 93.7811 17.9563 93.7788C17.9643 93.7765 17.9727 93.7758 17.981 93.7768C17.9892 93.7777 17.9972 93.7803 18.0045 93.7844C18.0117 93.7884 18.0181 93.7938 18.0233 93.8003L24.074 101.437C24.0814 101.447 24.086 101.458 24.0873 101.47C24.0886 101.481 24.0866 101.493 24.0814 101.504C24.0762 101.515 24.0681 101.524 24.058 101.53C24.0479 101.536 24.0363 101.54 24.0243 101.54Z" fill="white"/>
<path d="M23.5164 90.5858C23.5029 90.5857 23.4898 90.5813 23.479 90.5732L15.7364 84.9249C15.7229 84.915 15.7138 84.9001 15.7112 84.8836C15.7086 84.867 15.7127 84.8501 15.7226 84.8365C15.7326 84.823 15.7474 84.8139 15.764 84.8113C15.7806 84.8087 15.7976 84.8128 15.8111 84.8227L23.5537 90.4711C23.5643 90.4791 23.5722 90.4902 23.5762 90.5029C23.5801 90.5155 23.58 90.5291 23.5758 90.5417C23.5716 90.5543 23.5635 90.5652 23.5528 90.573C23.542 90.5808 23.529 90.5849 23.5157 90.5849L23.5164 90.5858Z" fill="white"/>
<path d="M7.01271 97.8379C7.00719 97.8379 7.0017 97.8372 6.99638 97.8358C6.98029 97.8313 6.9666 97.8208 6.95828 97.8063C6.94996 97.7919 6.94768 97.7747 6.95195 97.7586L9.41665 88.5323C9.41868 88.5242 9.42232 88.5165 9.42734 88.5098C9.43236 88.5031 9.43868 88.4974 9.44592 88.4931C9.45315 88.4889 9.46117 88.4861 9.46949 88.485C9.47781 88.4838 9.48628 88.4844 9.4944 88.4865C9.50251 88.4887 9.51011 88.4924 9.51676 88.4976C9.52341 88.5027 9.52897 88.5091 9.53311 88.5164C9.53726 88.5237 9.53991 88.5318 9.54091 88.5401C9.5419 88.5484 9.54123 88.5569 9.53893 88.5649L7.07423 97.791C7.07061 97.8045 7.06262 97.8164 7.05148 97.8249C7.04035 97.8334 7.02671 97.838 7.01271 97.8379Z" fill="white"/>
<path d="M93.945 6.95996H21.1991C19.1018 6.95996 17.4016 8.6586 17.4016 10.754V90.931C17.4016 93.0264 19.1018 94.725 21.1991 94.725H93.945C96.0423 94.725 97.7425 93.0264 97.7425 90.931V10.754C97.7425 8.6586 96.0423 6.95996 93.945 6.95996Z" fill="white"/>
<path d="M93.8731 94.7446H21.1267C20.0864 94.7434 19.089 94.3299 18.3533 93.595C17.6177 92.86 17.2039 91.8635 17.2027 90.8241V10.647C17.2039 9.60764 17.6177 8.61115 18.3533 7.87618C19.089 7.1412 20.0864 6.72777 21.1267 6.72656H93.8731C94.9135 6.72773 95.9109 7.14116 96.6465 7.87614C97.3822 8.61112 97.796 9.60763 97.7972 10.647V90.8241C97.796 91.8635 97.3822 92.86 96.6465 93.595C95.9109 94.33 94.9135 94.7434 93.8731 94.7446ZM21.1267 6.9795C20.1535 6.98063 19.2204 7.3674 18.5323 8.05495C17.8441 8.74251 17.457 9.6747 17.4558 10.647V90.8241C17.4569 91.7964 17.844 92.7287 18.5322 93.4162C19.2204 94.1038 20.1535 94.4905 21.1267 94.4916H93.8731C94.8463 94.4905 95.7794 94.1038 96.4676 93.4162C97.1558 92.7287 97.5429 91.7964 97.544 90.8241V10.647C97.5429 9.6747 97.1557 8.74251 96.4676 8.05495C95.7794 7.3674 94.8463 6.98063 93.8731 6.9795H21.1267Z" fill="#292A2E"/>
<path d="M97.6705 10.6466V13.5791H17.3301V10.6466C17.3301 9.64032 17.7302 8.6753 18.4424 7.96378C19.1546 7.25226 20.1205 6.85254 21.1276 6.85254H93.873C94.8801 6.85254 95.846 7.25226 96.5582 7.96378C97.2704 8.6753 97.6705 9.64032 97.6705 10.6466Z" fill="#292A2E"/>
<path opacity="0.1" d="M30.7257 36.8698C35.8532 36.8698 40.0099 32.7169 40.0099 27.5941C40.0099 22.4712 35.8532 18.3184 30.7257 18.3184C25.5981 18.3184 21.4414 22.4712 21.4414 27.5941C21.4414 32.7169 25.5981 36.8698 30.7257 36.8698Z" fill="#367CFF"/>
<path opacity="0.2" d="M30.7257 27.1945C32.5066 27.1945 33.9504 25.7521 33.9504 23.9727C33.9504 22.1934 32.5066 20.751 30.7257 20.751C28.9447 20.751 27.501 22.1934 27.501 23.9727C27.501 25.7521 28.9447 27.1945 30.7257 27.1945Z" fill="#367CFF"/>
<path opacity="0.2" d="M37.7053 33.7106C36.834 34.7032 35.7605 35.4985 34.5568 36.0433C33.3531 36.5881 32.0468 36.8699 30.7253 36.8698C29.4038 36.8697 28.0975 36.5877 26.8939 36.0426C25.6902 35.4976 24.6169 34.7021 23.7457 33.7094C24.192 32.2058 25.1128 30.8867 26.3707 29.9486C27.6286 29.0105 29.1563 28.5038 30.726 28.5039C32.2957 28.504 33.8233 29.0111 35.0811 29.9494C36.3388 30.8877 37.2593 32.207 37.7053 33.7106Z" fill="#367CFF"/>
<path opacity="0.2" d="M35.1109 43.1982H22.5267C22.0726 43.1982 21.7045 43.5661 21.7045 44.0198C21.7045 44.4735 22.0726 44.8413 22.5267 44.8413H35.1109C35.565 44.8413 35.9332 44.4735 35.9332 44.0198C35.9332 43.5661 35.565 43.1982 35.1109 43.1982Z" fill="#367CFF"/>
<path opacity="0.1" d="M65.0124 18.9414H45.2324C44.4938 18.9414 43.895 19.5396 43.895 20.2775V23.0488C43.895 23.7867 44.4938 24.3849 45.2324 24.3849H65.0124C65.751 24.3849 66.3497 23.7867 66.3497 23.0488V20.2775C66.3497 19.5396 65.751 18.9414 65.0124 18.9414Z" fill="#367CFF"/>
<path opacity="0.2" d="M74.1756 27.3945H44.5279C44.1784 27.3945 43.895 27.6776 43.895 28.0269C43.895 28.3761 44.1784 28.6592 44.5279 28.6592H74.1756C74.5252 28.6592 74.8085 28.3761 74.8085 28.0269C74.8085 27.6776 74.5252 27.3945 74.1756 27.3945Z" fill="#367CFF"/>
<path opacity="0.2" d="M74.1756 31.1885H44.5279C44.1784 31.1885 43.895 31.4716 43.895 31.8208C43.895 32.17 44.1784 32.4532 44.5279 32.4532H74.1756C74.5252 32.4532 74.8085 32.17 74.8085 31.8208C74.8085 31.4716 74.5252 31.1885 74.1756 31.1885Z" fill="#367CFF"/>
<path opacity="0.2" d="M69.1123 34.9824H44.5279C44.1784 34.9824 43.895 35.2655 43.895 35.6148C43.895 35.964 44.1784 36.2471 44.5279 36.2471H69.1123C69.4618 36.2471 69.7452 35.964 69.7452 35.6148C69.7452 35.2655 69.4618 34.9824 69.1123 34.9824Z" fill="#367CFF"/>
<path opacity="0.1" d="M53.7993 47.2109H22.8932C22.2367 47.2109 21.7045 47.7427 21.7045 48.3986V51.3329C21.7045 51.9888 22.2367 52.5205 22.8932 52.5205H53.7993C54.4558 52.5205 54.988 51.9888 54.988 51.3329V48.3986C54.988 47.7427 54.4558 47.2109 53.7993 47.2109Z" fill="#367CFF"/>
<path opacity="0.2" d="M73.0045 43.1982H60.4203C59.9662 43.1982 59.598 43.5661 59.598 44.0198C59.598 44.4735 59.9662 44.8413 60.4203 44.8413H73.0045C73.4586 44.8413 73.8267 44.4735 73.8267 44.0198C73.8267 43.5661 73.4586 43.1982 73.0045 43.1982Z" fill="#367CFF"/>
<path opacity="0.1" d="M91.6928 47.2109H60.7868C60.1303 47.2109 59.598 47.7427 59.598 48.3986V51.3329C59.598 51.9888 60.1303 52.5205 60.7868 52.5205H91.6928C92.3494 52.5205 92.8816 51.9888 92.8816 51.3329V48.3986C92.8816 47.7427 92.3494 47.2109 91.6928 47.2109Z" fill="#367CFF"/>
<path opacity="0.2" d="M35.1109 56.9102H22.5267C22.0726 56.9102 21.7045 57.278 21.7045 57.7317C21.7045 58.1854 22.0726 58.5532 22.5267 58.5532H35.1109C35.565 58.5532 35.9332 58.1854 35.9332 57.7317C35.9332 57.278 35.565 56.9102 35.1109 56.9102Z" fill="#367CFF"/>
<path opacity="0.1" d="M53.7993 60.9229H22.8932C22.2367 60.9229 21.7045 61.4546 21.7045 62.1105V65.0448C21.7045 65.7007 22.2367 66.2325 22.8932 66.2325H53.7993C54.4558 66.2325 54.988 65.7007 54.988 65.0448V62.1105C54.988 61.4546 54.4558 60.9229 53.7993 60.9229Z" fill="#367CFF"/>
<path opacity="0.2" d="M73.0045 56.9102H60.4203C59.9662 56.9102 59.598 57.278 59.598 57.7317C59.598 58.1854 59.9662 58.5532 60.4203 58.5532H73.0045C73.4586 58.5532 73.8267 58.1854 73.8267 57.7317C73.8267 57.278 73.4586 56.9102 73.0045 56.9102Z" fill="#367CFF"/>
<path opacity="0.1" d="M91.6928 60.9229H60.7868C60.1303 60.9229 59.598 61.4546 59.598 62.1105V65.0448C59.598 65.7007 60.1303 66.2325 60.7868 66.2325H91.6928C92.3494 66.2325 92.8816 65.7007 92.8816 65.0448V62.1105C92.8816 61.4546 92.3494 60.9229 91.6928 60.9229Z" fill="#367CFF"/>
<path opacity="0.2" d="M35.1109 70.6221H22.5267C22.0726 70.6221 21.7045 70.9899 21.7045 71.4436C21.7045 71.8973 22.0726 72.2651 22.5267 72.2651H35.1109C35.565 72.2651 35.9332 71.8973 35.9332 71.4436C35.9332 70.9899 35.565 70.6221 35.1109 70.6221Z" fill="#367CFF"/>
<path opacity="0.1" d="M53.7993 74.6357H22.8932C22.2367 74.6357 21.7045 75.1675 21.7045 75.8234V78.7577C21.7045 79.4136 22.2367 79.9453 22.8932 79.9453H53.7993C54.4558 79.9453 54.988 79.4136 54.988 78.7577V75.8234C54.988 75.1675 54.4558 74.6357 53.7993 74.6357Z" fill="#367CFF"/>
<path opacity="0.2" d="M73.0045 70.6221H60.4203C59.9662 70.6221 59.598 70.9899 59.598 71.4436C59.598 71.8973 59.9662 72.2651 60.4203 72.2651H73.0045C73.4586 72.2651 73.8267 71.8973 73.8267 71.4436C73.8267 70.9899 73.4586 70.6221 73.0045 70.6221Z" fill="#367CFF"/>
<path opacity="0.1" d="M91.6928 74.6357H60.7868C60.1303 74.6357 59.598 75.1675 59.598 75.8234V78.7577C59.598 79.4136 60.1303 79.9453 60.7868 79.9453H91.6928C92.3494 79.9453 92.8816 79.4136 92.8816 78.7577V75.8234C92.8816 75.1675 92.3494 74.6357 91.6928 74.6357Z" fill="#367CFF"/>
<path opacity="0.2" d="M67.1592 84.082H47.841C47.0615 84.082 46.4296 84.7134 46.4296 85.4921V88.0953C46.4296 88.8741 47.0615 89.5054 47.841 89.5054H67.1592C67.9387 89.5054 68.5706 88.8741 68.5706 88.0953V85.4921C68.5706 84.7134 67.9387 84.082 67.1592 84.082Z" fill="#367CFF"/>
<path d="M60.8701 22.6742L62.9158 25.0879L62.7892 24.6735C62.7509 24.5389 62.7653 24.3949 62.8293 24.2704C62.8933 24.146 63.0022 24.0505 63.134 24.0032C63.2029 23.9812 63.2755 23.9734 63.3475 23.9804C63.4195 23.9873 63.4893 24.0088 63.5527 24.0436C63.616 24.0784 63.6717 24.1257 63.7161 24.1827C63.7606 24.2396 63.793 24.305 63.8114 24.3749L64.7466 27.8931C64.8646 28.3372 64.8043 28.8098 64.5785 29.2101C64.3526 29.6104 63.9792 29.9068 63.5378 30.0358C63.0253 30.1857 62.4797 30.1793 61.9709 30.0173C61.4622 29.8554 61.0134 29.5453 60.6821 29.1269L59.1847 27.2285C59.105 27.1314 59.0613 27.0098 59.0611 26.8842C59.0608 26.7585 59.104 26.6367 59.1834 26.5393C59.2569 26.4527 59.3561 26.3919 59.4667 26.3657C59.5773 26.3396 59.6933 26.3494 59.7979 26.3938C59.8 26.3855 59.8044 26.3779 59.8106 26.3718C59.8167 26.3665 59.8241 26.3628 59.832 26.3609C59.8399 26.3591 59.8482 26.3593 59.856 26.3615L59.5787 26.0112C59.4937 25.9085 59.4487 25.7785 59.4522 25.6453C59.4556 25.5121 59.5071 25.3847 59.5973 25.2865C59.6896 25.1923 59.8137 25.1357 59.9455 25.1277C60.0772 25.1197 60.2072 25.1609 60.3103 25.2432C60.311 25.2377 60.3127 25.2323 60.3154 25.2273L60.2015 25.0836C60.1271 24.9852 60.0865 24.8655 60.0855 24.7423C60.0845 24.619 60.1233 24.4987 60.196 24.3991C60.285 24.2919 60.4124 24.2238 60.551 24.2094C60.6896 24.1949 60.8284 24.2353 60.9375 24.3218L60.9448 24.3146L60.0853 23.3005C60.0412 23.2485 60.0082 23.188 59.9882 23.1228C59.9683 23.0577 59.9619 22.9891 59.9693 22.9214C59.9768 22.8536 59.998 22.7881 60.0316 22.7288C60.0653 22.6696 60.1107 22.6177 60.165 22.5766C60.273 22.5005 60.4059 22.4683 60.5368 22.4864C60.6677 22.5045 60.7868 22.5716 60.8701 22.6742Z" fill="#E98862"/>
<path opacity="0.2" d="M60.9167 24.3789C60.9188 24.3843 60.9218 24.3894 60.9256 24.3938L61.7726 25.3696C61.7769 25.3746 61.7821 25.3787 61.788 25.3817C61.7939 25.3846 61.8003 25.3864 61.8069 25.3869C61.8134 25.3874 61.82 25.3866 61.8263 25.3845C61.8325 25.3824 61.8383 25.3792 61.8433 25.3749C61.8483 25.3706 61.8524 25.3653 61.8553 25.3595C61.8583 25.3536 61.8601 25.3472 61.8606 25.3406C61.8611 25.3341 61.8603 25.3275 61.8582 25.3212C61.8561 25.315 61.8529 25.3092 61.8486 25.3042L61.0024 24.3288C60.9944 24.3206 60.9839 24.3154 60.9726 24.3139C60.9613 24.3124 60.9498 24.3148 60.94 24.3207C60.9302 24.3265 60.9227 24.3355 60.9187 24.3462C60.9147 24.3568 60.9143 24.3685 60.9178 24.3794L60.9167 24.3789Z" fill="#0C0C0C"/>
<path opacity="0.2" d="M60.3116 25.2671C60.3136 25.2724 60.3165 25.2773 60.3202 25.2817L60.9794 26.0531C60.9883 26.0623 61.0003 26.0678 61.013 26.0685C61.0258 26.0691 61.0383 26.0649 61.0481 26.0566C61.0578 26.0483 61.0639 26.0366 61.0653 26.0239C61.0667 26.0112 61.0631 25.9985 61.0554 25.9884L60.3961 25.2169C60.3885 25.2079 60.3779 25.2018 60.3662 25.1999C60.3545 25.198 60.3425 25.2002 60.3323 25.2063C60.3221 25.2124 60.3145 25.2219 60.3106 25.2331C60.3068 25.2443 60.3071 25.2565 60.3115 25.2675L60.3116 25.2671Z" fill="#0C0C0C"/>
<path opacity="0.2" d="M59.797 26.4276C59.7992 26.4333 59.8024 26.4386 59.8065 26.4432L60.127 26.8003C60.1314 26.8052 60.1367 26.8092 60.1426 26.812C60.1485 26.8149 60.1549 26.8165 60.1615 26.8169C60.168 26.8172 60.1746 26.8163 60.1808 26.8141C60.187 26.812 60.1927 26.8086 60.1975 26.8042C60.2024 26.7999 60.2064 26.7946 60.2092 26.7887C60.2121 26.7828 60.2137 26.7764 60.2141 26.7698C60.2145 26.7633 60.2135 26.7567 60.2114 26.7506C60.2092 26.7444 60.2058 26.7387 60.2015 26.7338L59.8816 26.3765C59.8738 26.368 59.8633 26.3625 59.8519 26.3609C59.8404 26.3592 59.8288 26.3616 59.8189 26.3675C59.809 26.3735 59.8015 26.3827 59.7976 26.3935C59.7938 26.4044 59.7938 26.4163 59.7977 26.4271L59.797 26.4276Z" fill="#0C0C0C"/>
<path d="M85.6481 46.8843L67.7889 45.6355C67.1445 45.5905 66.5262 45.364 66.0054 44.9822C65.4847 44.6005 65.0829 44.0791 64.8466 43.4785L59.1999 29.1274L65.5614 26.6289L70.4182 38.9735L86.1247 40.0717L85.6481 46.8843Z" fill="#367CFF"/>
<path d="M96.0177 116.249C96.0177 116.249 95.4461 119.208 92.6723 119.374C89.8985 119.539 90.5 121.747 90.5 121.747H101.1V116.455L96.0177 116.249Z" fill="#367CFF"/>
<path d="M99.2872 62.2571C99.2872 62.2571 99.2539 61.3673 99.261 63.3857C99.2872 70.9142 99.4179 79.5134 99.7374 84.5454C100.251 92.6348 101.568 118.139 101.568 118.139L94.6025 118.08L87.8514 61.9512L99.2872 62.2571Z" fill="#262626"/>
<path d="M83.6175 116.249C83.6175 116.249 83.0459 119.208 80.2721 119.374C77.4983 119.539 78.0998 121.747 78.0998 121.747H88.6998V116.455L83.6175 116.249Z" fill="#367CFF"/>
<path d="M80.2449 62.8416C80.2449 62.8416 79.6279 88.5722 79.7183 89.8297L82.3087 117.943L89.1589 118.07L88.4914 88.8124C88.4914 88.8124 88.9623 80.7418 90.914 73.2477C91.9126 69.4015 92.5136 65.463 92.7075 61.4941L80.2449 62.8416Z" fill="#262626"/>
<path d="M99.3629 62.2557L99.3857 62.2569C99.3857 62.2569 99.3692 61.8181 99.3629 62.2557Z" fill="#333333"/>
<path d="M79.2644 48.5593C79.4081 50.2453 80.1068 60.7646 80.2449 62.8413H99.2792C99.3868 60.9682 99.8696 52.7777 100.277 49.1148C100.667 45.6195 101.43 43.8695 100.87 42.8362C99.9558 41.1474 97.4563 40.1714 95.752 39.9409C94.7112 39.8001 93.146 39.6992 93.146 39.6992C93.146 39.6992 93.0135 42.3779 89.8532 42.527C85.5513 42.7294 85.8385 39.6992 85.8172 39.6992C85.1202 39.6992 81.062 40.0266 80.1649 40.7168C78.5955 41.9238 78.9594 44.9862 79.2644 48.5593Z" fill="#367CFF"/>
<path d="M79.0016 46.4464C78.9854 46.4464 78.9699 46.4403 78.9581 46.4292C78.9463 46.4181 78.9392 46.403 78.9383 46.3869L78.7854 43.7094C78.7844 43.6927 78.7901 43.6762 78.8013 43.6637C78.8125 43.6512 78.8281 43.6436 78.8449 43.6426C78.8616 43.6419 78.878 43.6477 78.8905 43.6588C78.9029 43.6699 78.9106 43.6855 78.9117 43.7022L79.0653 46.3795C79.0662 46.3963 79.0605 46.4127 79.0494 46.4252C79.0382 46.4377 79.0225 46.4453 79.0058 46.4463L79.0016 46.4464Z" fill="#0C0C0C"/>
<path d="M103.395 62.731C103.955 62.7309 104.506 62.5957 105.002 62.3368C105.499 62.078 105.925 61.7032 106.245 61.2443C106.565 60.7854 106.77 60.2561 106.841 59.7013C106.912 59.1465 106.849 58.5827 106.655 58.0579C106.458 57.5251 101.848 45.3282 100.97 43.0684L94.4717 45.6989C94.9654 46.9696 96.7531 51.786 98.1896 55.6659L95.8032 55.4068L95.0521 62.3101L103.019 62.7105C103.144 62.7241 103.269 62.7309 103.395 62.731Z" fill="#367CFF"/>
<path d="M83.5497 39.4687C83.5711 39.466 84.1549 41.6612 88.7115 41.3196C91.866 41.0835 92.6356 38.9382 92.7075 38.9382C92.3674 38.866 91.8151 38.791 91.664 38.7106C91.1673 38.444 90.8055 38.1193 90.6233 37.4227C90.4809 36.8779 90.4081 34.7807 90.4081 33.7285L85.5539 34.8183C85.6216 36.0053 86.0952 38.7569 84.4354 39.2439C84.1595 39.3243 83.862 39.3984 83.5497 39.4687Z" fill="#E98862"/>
<path d="M85.7222 37.1519C87.6358 37.3028 90.094 36.4955 90.5609 33.9448L90.9822 31.6431C91.4492 29.0924 90.4868 26.7796 88.0834 26.3403C85.6796 25.9011 83.5043 27.6406 83.0375 30.1913L82.8509 31.2102C82.6715 32.1891 82.308 36.8828 85.7222 37.1519Z" fill="#E98862"/>
<path d="M83.9478 34.8095C84.2914 33.0853 84.4489 31.9348 84.4305 30.7211C83.9467 29.8738 84.0739 28.9 84.1839 28.4796C83.8508 28.6911 83.4591 28.7915 83.0652 28.7663C83.0652 28.7663 83.8652 25.5581 86.5842 24.6948C87.0842 24.5003 88.361 24.2547 90.0564 24.487C91.4984 24.6846 95.0527 25.7618 95.5606 29.7598V29.7621C95.5774 29.8946 95.9187 33.5782 96.5986 35.3456C97.5133 37.7216 98.7973 38.4597 98.7648 41.201C98.7229 44.7271 92.2346 45.1964 88.3217 44.9327C84.4087 44.669 82.2236 43.3832 82.195 40.8421C82.1652 37.995 83.2606 38.2594 83.9478 34.8095Z" fill="#0A0A0A"/>
<path d="M99.6861 49.1858L99.2184 62.8398L99.345 62.8442L99.8126 49.1902L99.6861 49.1858Z" fill="#0C0C0C"/>
<path d="M7.65651 122H119.697C119.71 122 119.722 121.998 119.734 121.994C119.746 121.989 119.756 121.982 119.765 121.974C119.774 121.965 119.781 121.955 119.786 121.943C119.791 121.932 119.794 121.919 119.794 121.907C119.794 121.894 119.791 121.882 119.786 121.87C119.781 121.859 119.774 121.848 119.765 121.84C119.756 121.831 119.746 121.824 119.734 121.82C119.722 121.815 119.71 121.813 119.697 121.814H7.65651C7.64398 121.813 7.63148 121.815 7.61977 121.82C7.60806 121.824 7.59736 121.831 7.58833 121.84C7.57931 121.848 7.57212 121.859 7.56722 121.87C7.56231 121.882 7.55978 121.894 7.55978 121.907C7.55978 121.919 7.56231 121.932 7.56722 121.943C7.57212 121.955 7.57931 121.965 7.58833 121.974C7.59736 121.982 7.60806 121.989 7.61977 121.994C7.63148 121.998 7.64398 122 7.65651 122Z" fill="#292A2E"/>
<path d="M91.4214 71.1348C91.4214 71.1348 91.1327 76.5982 91.0797 77.8808C90.9559 80.8471 90.9129 83.9182 90.9129 87.4004L89.815 78.2719C89.815 78.2719 90.6179 75.4111 91.4214 71.1348Z" fill="#0A0A0A"/>
</g>
<defs>
<clipPath id="clip0_8_8478">
<rect width="126.707" height="122" fill="white"/>
</clipPath>
</defs>
</svg>
