<svg width="194" height="122" viewBox="0 0 194 122" fill="none" xmlns="http://www.w3.org/2000/svg">
<g clip-path="url(#clip0_8_8604)">
<path d="M194 116.856H0C2.12575 111.46 6.05065 106.881 11.5853 105.523C19.6806 103.539 28.2475 108.995 36.3247 106.943C40.9137 105.779 44.5264 102.386 48.3227 99.569C62.6447 88.9389 82.2712 85.797 99.2184 91.4236C108.077 94.3632 116.149 99.5039 125.223 101.689C136.957 104.517 149.229 102.172 161.296 101.786C173.049 101.41 189.888 106.177 194 116.856Z" fill="#F3F5FD"/>
<path d="M147.578 5.19287C148.54 5.19287 149.321 4.41604 149.321 3.45776C149.321 2.49949 148.54 1.72266 147.578 1.72266C146.615 1.72266 145.835 2.49949 145.835 3.45776C145.835 4.41604 146.615 5.19287 147.578 5.19287Z" fill="white"/>
<path d="M155.133 77.2061C155.133 77.2061 153.712 82.2753 152.914 84.9058C152.876 85.0304 152.868 85.1621 152.89 85.2904C152.913 85.4186 152.965 85.5399 153.043 85.6444C153.121 85.7488 153.223 85.8337 153.34 85.8921C153.457 85.9505 153.586 85.9809 153.716 85.9807H158.704C158.919 85.9806 159.126 85.898 159.282 85.75C159.438 85.602 159.531 85.4 159.541 85.1858L159.877 78.129L155.133 77.2061Z" fill="#0F1011"/>
<path d="M162.776 88.482C162.776 88.482 161.326 87.7181 161.646 83.7876L158.65 83.2373C158.65 83.2373 158.99 86.7607 157.476 87.8808L162.776 88.482Z" fill="#E98862"/>
<path opacity="0.15" d="M158.089 87.1437L160.575 85.2462L158.621 85.2275C158.565 85.8937 158.384 86.5435 158.089 87.1437Z" fill="black"/>
<path d="M163.344 82.263C163.138 83.4555 162.486 84.5853 161.429 84.9713C160.278 85.4275 159.032 85.5962 157.8 85.4627C154.521 85.1981 155.163 77.7748 156.719 76.3316C158.274 74.8884 162.844 75.7974 163.402 78.2084C163.69 79.4554 163.541 81.1287 163.344 82.263Z" fill="#E98862"/>
<path d="M158.652 81.3485C158.803 81.3485 158.924 81.2274 158.924 81.0781C158.924 80.9287 158.803 80.8076 158.652 80.8076C158.502 80.8076 158.381 80.9287 158.381 81.0781C158.381 81.2274 158.502 81.3485 158.652 81.3485Z" fill="#0F1011"/>
<path d="M156.509 81.1757C156.659 81.1757 156.781 81.0546 156.781 80.9052C156.781 80.7559 156.659 80.6348 156.509 80.6348C156.359 80.6348 156.237 80.7559 156.237 80.9052C156.237 81.0546 156.359 81.1757 156.509 81.1757Z" fill="#0F1011"/>
<path d="M156.758 80.1924L156.038 80.2021" stroke="#0F1011" stroke-width="1.362" stroke-miterlimit="10" stroke-linecap="round"/>
<path d="M159.238 80.4603L158.529 80.291" stroke="#0F1011" stroke-width="1.362" stroke-miterlimit="10" stroke-linecap="round"/>
<path d="M158.529 83.2079C158.529 83.2079 157.526 83.3141 156.823 83.0703C156.823 83.0703 156.829 83.7277 157.622 83.7919C158.416 83.8561 158.529 83.2079 158.529 83.2079Z" fill="white"/>
<g opacity="0.15">
<path d="M157.448 82.5793C157.47 82.5795 157.492 82.5716 157.509 82.557C157.526 82.5424 157.538 82.5221 157.541 82.4999C157.544 82.4777 157.54 82.455 157.527 82.436C157.515 82.417 157.497 82.4031 157.475 82.3966L156.923 82.2286L157.308 81.3713C157.314 81.3601 157.317 81.3478 157.318 81.3352C157.319 81.3227 157.317 81.3101 157.313 81.2982C157.308 81.2864 157.302 81.2755 157.293 81.2663C157.285 81.257 157.274 81.2496 157.263 81.2445C157.251 81.2393 157.239 81.2366 157.226 81.2363C157.213 81.2361 157.201 81.2385 157.189 81.2432C157.177 81.2479 157.167 81.255 157.158 81.2639C157.149 81.2728 157.142 81.2835 157.137 81.2952L156.665 82.3453L157.42 82.5756C157.429 82.5782 157.438 82.5795 157.448 82.5793Z" fill="black"/>
</g>
<path d="M154.962 77.8138C154.962 77.8138 155.442 73.9477 161.665 74.8972C163.216 75.1338 165.415 76.3396 165.771 80.2914C165.934 82.1041 166.562 83.8133 167.04 84.8951C167.097 85.0221 167.121 85.1612 167.11 85.2998C167.099 85.4383 167.053 85.5719 166.977 85.6885C166.901 85.805 166.797 85.9008 166.674 85.9672C166.552 86.0335 166.414 86.0683 166.275 86.0684L161.901 86.0699C161.791 86.0701 161.682 86.0487 161.58 86.007C161.479 85.9654 161.386 85.9042 161.308 85.8269C161.231 85.7497 161.169 85.6579 161.127 85.5569C161.084 85.4559 161.062 85.3476 161.062 85.2382C161.062 85.2259 161.062 85.2136 161.062 85.2009C161.094 84.4597 161.119 83.2048 161.076 81.2868C160.849 80.1921 161.455 79.4203 160.575 79.6719C157.31 80.6046 155.208 77.8763 154.962 77.8138Z" fill="#0F1011"/>
<path d="M160.025 82.2421C160.001 82.5452 160.098 82.8457 160.296 83.0774C160.493 83.3091 160.776 83.4531 161.08 83.4777C161.385 83.5022 161.686 83.4054 161.919 83.2084C162.152 83.0115 162.297 82.7306 162.321 82.4275C162.35 82.1299 162.26 81.833 162.069 81.602C161.878 81.371 161.604 81.2248 161.305 81.1956C161.292 81.1944 161.279 81.1933 161.267 81.1926C160.445 81.1655 160.077 81.6109 160.025 82.2421Z" fill="#E98862"/>
<path d="M151.535 115.471C151.179 115.412 147.166 114.729 147.166 114.729" stroke="#E98862" stroke-width="21" stroke-miterlimit="10"/>
<path d="M144.542 121.11C144.525 121.215 144.53 121.321 144.556 121.423C144.582 121.525 144.629 121.621 144.694 121.704C144.759 121.787 144.84 121.856 144.933 121.907C145.026 121.957 145.129 121.988 145.234 121.997C145.38 122.01 145.527 121.981 145.657 121.914C145.788 121.846 145.896 121.743 145.969 121.617L148.24 117.369C148.284 117.287 148.309 117.196 148.314 117.103C148.319 117.011 148.304 116.918 148.27 116.831C147.943 116.141 147.847 115.364 147.996 114.615C148.136 114.036 148.438 113.508 148.865 113.091C148.906 113.055 148.937 113.008 148.952 112.955C148.968 112.903 148.968 112.847 148.953 112.794C148.938 112.741 148.908 112.694 148.867 112.658C148.826 112.621 148.775 112.597 148.721 112.588L146.511 112.22C146.446 112.209 146.379 112.211 146.315 112.226C146.25 112.241 146.19 112.268 146.136 112.306C146.082 112.345 146.036 112.393 146.002 112.449C145.967 112.505 145.943 112.567 145.933 112.632L144.542 121.11Z" fill="#C1D8ED"/>
<path d="M163.651 106.954C165.319 107.023 167.017 107.072 168.716 107.114L171.268 107.169L173.818 107.215L174.072 107.22C175.125 107.239 176.132 107.656 176.889 108.385C177.645 109.115 178.096 110.102 178.151 111.15C178.205 112.197 177.858 113.226 177.18 114.028C176.503 114.831 175.544 115.348 174.499 115.476L149.3 118.522L148.274 111.108L173.36 107.253L174.04 115.513L171.452 115.679L168.864 115.835C167.137 115.935 165.408 116.028 163.649 116.1L163.651 106.954Z" fill="#262626"/>
<path d="M166.579 113.261C166.927 113.354 170.291 113.841 170.291 113.841" stroke="#E98862" stroke-width="21" stroke-miterlimit="10"/>
<path d="M174.353 119.15C174.389 119.248 174.405 119.354 174.399 119.459C174.392 119.564 174.364 119.667 174.317 119.761C174.269 119.855 174.202 119.938 174.12 120.005C174.038 120.072 173.944 120.122 173.842 120.151C173.701 120.191 173.551 120.191 173.41 120.149C173.27 120.107 173.144 120.027 173.048 119.916L170.009 116.175C169.95 116.103 169.908 116.019 169.886 115.928C169.863 115.838 169.86 115.744 169.877 115.653C170.067 114.913 170.013 114.132 169.724 113.426C169.475 112.883 169.079 112.422 168.58 112.093C168.532 112.065 168.494 112.025 168.468 111.976C168.443 111.928 168.432 111.873 168.437 111.818C168.442 111.764 168.462 111.712 168.495 111.668C168.529 111.625 168.574 111.592 168.625 111.573L170.725 110.793C170.787 110.77 170.853 110.76 170.919 110.762C170.985 110.764 171.05 110.78 171.11 110.807C171.17 110.835 171.224 110.874 171.269 110.922C171.314 110.97 171.349 111.027 171.372 111.089L174.353 119.15Z" fill="#C1D8ED"/>
<path d="M158.055 115.428C157 115.339 155.944 115.274 154.889 115.214C153.834 115.158 152.778 115.102 151.723 115.064L150.141 115.003L148.559 114.958C147.504 114.923 146.45 114.909 145.395 114.889L145.761 107.346C147.735 107.621 149.711 107.873 151.687 108.132C153.663 108.391 155.642 108.629 157.62 108.871L160.588 109.22L163.559 109.551C165.54 109.763 167.522 109.974 169.508 110.147L168.636 117.582C166.664 117.295 164.687 117.046 162.71 116.798L159.742 116.439L156.773 116.097C154.792 115.879 152.811 115.658 150.829 115.457C148.847 115.255 146.864 115.048 144.88 114.863C143.928 114.774 143.045 114.33 142.408 113.621C141.77 112.912 141.426 111.989 141.442 111.038C141.459 110.086 141.836 109.176 142.497 108.489C143.159 107.803 144.057 107.39 145.011 107.334L145.246 107.32C146.299 107.259 147.352 107.203 148.404 107.127L149.983 107.019L151.562 106.896C152.615 106.817 153.667 106.719 154.719 106.622C155.771 106.52 156.823 106.414 157.875 106.283L158.055 115.428Z" fill="#262626"/>
<path d="M167.482 105.809L168.037 115.086L152.008 114.899L153.218 106.685L167.482 105.809Z" fill="#262626"/>
<path d="M142.651 88.4577C142.651 88.4577 142.623 86.2159 141.013 86.3325C139.998 86.4061 135.173 86.1832 135.101 86.6207C134.923 87.7033 139.337 87.968 139.737 88.9766L142.651 88.4577Z" fill="#E98862"/>
<path d="M173.116 103.989L168.569 90.5296C168.384 89.8744 168.025 89.2811 167.53 88.8124C166.673 87.9594 165.193 87.4088 163.39 87.4069C163.255 88.454 156.869 88.4578 156.82 87.4312C156.576 87.4349 156.387 87.4386 156.269 87.4442C154.505 87.52 153.462 88.0059 152.873 88.7808L146.854 94.6109L142.84 87.1475L139.369 88.9979L144.619 98.7559C144.763 99.0235 144.968 99.2542 145.216 99.4298C145.465 99.6053 145.752 99.7209 146.053 99.7674C146.355 99.8138 146.663 99.79 146.953 99.6976C147.244 99.6052 147.509 99.4469 147.727 99.2352L152.503 94.609C152.69 95.8169 152.804 97.0351 152.842 98.2567C152.915 104.315 151.271 105.458 152.081 107.309C152.866 109.107 168.302 109.853 168.509 106.692C168.511 106.658 168.511 106.625 168.512 106.592L171.116 106.671C171.137 106.671 171.158 106.671 171.179 106.671C171.503 106.671 171.823 106.594 172.112 106.447C172.4 106.3 172.649 106.086 172.839 105.824C173.028 105.562 173.152 105.258 173.2 104.939C173.248 104.62 173.219 104.294 173.116 103.987L173.116 103.989ZM168.305 102.515L167.372 102.486C167.029 101.357 166.855 100.182 166.858 99.002C166.858 98.7781 166.871 98.5565 166.893 98.3364L168.305 102.515Z" fill="#367CFF"/>
<path d="M156.82 87.4315C156.869 88.4581 157.429 89.9681 159.16 90.0819C161.466 90.2331 163.255 88.4543 163.39 87.4072H163.384C161.114 87.4072 158.144 87.411 156.82 87.4315Z" fill="#E98862"/>
<path d="M162.15 92.5601L162.812 102.393C162.82 102.509 162.804 102.625 162.765 102.734C162.725 102.844 162.664 102.944 162.584 103.029C162.505 103.114 162.408 103.181 162.301 103.228C162.194 103.274 162.079 103.298 161.962 103.298H148.167C147.956 103.298 147.753 103.22 147.596 103.079C147.44 102.939 147.341 102.745 147.32 102.537L146.299 92.704C146.287 92.5859 146.299 92.4665 146.336 92.3537C146.373 92.2408 146.434 92.1369 146.514 92.0487C146.594 91.9605 146.691 91.89 146.8 91.8417C146.909 91.7935 147.027 91.7686 147.146 91.7686H161.3C161.516 91.7685 161.724 91.8503 161.882 91.9973C162.039 92.1443 162.135 92.3455 162.15 92.5601Z" fill="#9EBCEA"/>
<path d="M149.32 103.298H163.814C164.142 103.298 164.408 103.033 164.408 102.706C164.408 102.379 164.142 102.114 163.814 102.114H149.32C148.991 102.114 148.725 102.379 148.725 102.706C148.725 103.033 148.991 103.298 149.32 103.298Z" fill="#9EBCEA"/>
<path d="M154.19 98.8397C154.915 98.8397 155.503 98.2547 155.503 97.5331C155.503 96.8115 154.915 96.2266 154.19 96.2266C153.465 96.2266 152.878 96.8115 152.878 97.5331C152.878 98.2547 153.465 98.8397 154.19 98.8397Z" fill="white"/>
<path d="M156.081 104.547C156.923 105.064 158.226 105.308 159.362 105.398L159.426 103.337C158.892 103.322 158.07 103.266 157.266 103.298C156.903 103.003 156.693 102.915 156.32 102.544C155.923 102.148 154.881 101.911 154.684 102.544C154.487 103.177 155.342 104.091 156.081 104.547Z" fill="#E98862"/>
<path d="M27.5786 75.9841L25.6463 75.5293L23.2239 85.7297L25.1561 86.1845L27.5786 75.9841Z" fill="#F0F6FF"/>
<path d="M23.5214 74.7376L22.4487 74.9346L24.1077 83.8878L25.1804 83.6908L23.5214 74.7376Z" fill="#C1D8ED"/>
<path d="M23.5211 74.7345L22.4495 74.9375L22.6383 75.9251L23.7099 75.7221L23.5211 74.7345Z" fill="#DEE8F5"/>
<path d="M26.8418 77.0144L23.3656 85.7988L23.9613 86.0325L27.4375 77.248L26.8418 77.0144Z" fill="#0CBC8B"/>
<path d="M27.6029 80.8574H22.363V87.5246H27.6029V80.8574Z" fill="#262626"/>
<path d="M33.189 114.586H31.0278V116.958H33.189V114.586Z" fill="#C1D8ED"/>
<path d="M12.6272 114.586H10.466V116.958H12.6272V114.586Z" fill="#C1D8ED"/>
<path d="M8.60536 114.86H17.6731L17.6731 87.5436H8.60536L8.60536 114.86Z" fill="#C1D8ED"/>
<path d="M33.2165 114.586H42.5023V88.1491H33.2165V114.586Z" fill="#C1D8ED"/>
<path d="M17.0624 87.5439H43.1131V114.861H17.0624V87.5439ZM41.8916 88.76H18.2839V113.645H41.8916V88.76Z" fill="#DEE8F5"/>
<path d="M17.0624 99.7998H43.1131V114.86H17.0624V99.7998ZM41.8916 101.016H18.2839V113.644H41.8916V101.016Z" fill="#DEE8F5"/>
<path d="M31.3036 90.9268V92.6663V99.7901H20.2372V92.6663V90.9268H31.3036Z" fill="#C1D8ED"/>
<path d="M34.9307 92.666H23.8644V99.7897H34.9307V92.666Z" fill="#DEE8F5"/>
<path d="M34.9307 92.666H23.8644V93.2H34.9307V92.666Z" fill="#C1D8ED"/>
<path d="M23.8644 92.666H34.9308V90.9264H23.8644V92.666Z" fill="#DEE8F5"/>
<path d="M28.171 95.167H30.6239C30.7647 95.167 30.8789 95.0533 30.8789 94.9131V94.3511C30.8789 94.2109 30.7647 94.0973 30.6239 94.0973H28.171C28.0302 94.0973 27.916 94.2109 27.916 94.3511V94.9131C27.916 95.0533 28.0302 95.167 28.171 95.167Z" fill="white"/>
<path d="M41.4492 114.586H39.288V116.958H41.4492V114.586Z" fill="#DEE8F5"/>
<path d="M20.8874 114.586H18.7262V116.958H20.8874V114.586Z" fill="#DEE8F5"/>
<path d="M21.1848 113.645H33.2158V110.932H21.1848V113.645Z" fill="#C1D8ED"/>
<path d="M20.9782 108.227H33.0092V105.515H20.9782V108.227Z" fill="#C1D8ED"/>
<path d="M25.2902 113.645H38.0131V110.932H25.2902V113.645Z" fill="#DEE8F5"/>
<path opacity="0.62" d="M26.3287 113.645H26.9463V110.932H26.3287V113.645Z" fill="#C1D8ED"/>
<path opacity="0.62" d="M27.5637 113.645H28.1813V110.932H27.5637V113.645Z" fill="#C1D8ED"/>
<path d="M36.5546 113.163C37.0398 113.163 37.4331 112.772 37.4331 112.289C37.4331 111.806 37.0398 111.414 36.5546 111.414C36.0693 111.414 35.676 111.806 35.676 112.289C35.676 112.772 36.0693 113.163 36.5546 113.163Z" fill="#F3F5FD"/>
<path d="M25.0836 108.227H37.8065V105.515H25.0836V108.227Z" fill="#DEE8F5"/>
<path d="M28.1088 107.616H36.9871V106.126H28.1088V107.616Z" fill="#F3F5FD"/>
<path opacity="0.62" d="M26.1219 108.227H27.2906V105.515H26.1219V108.227Z" fill="#C1D8ED"/>
<path d="M32.2345 108.224H20.2035V110.936H32.2345V108.224Z" fill="#C1D8ED"/>
<path d="M37.0317 108.224H24.3089V110.936H37.0317V108.224Z" fill="#F3F5FD"/>
<path d="M35.9934 108.224H35.3758V110.936H35.9934V108.224Z" fill="#DEE8F5"/>
<path d="M34.7582 108.224H34.1407V110.936H34.7582V108.224Z" fill="#DEE8F5"/>
<path d="M25.7676 110.454C26.2528 110.454 26.6461 110.063 26.6461 109.58C26.6461 109.097 26.2528 108.705 25.7676 108.705C25.2823 108.705 24.889 109.097 24.889 109.58C24.889 110.063 25.2823 110.454 25.7676 110.454Z" fill="#DEE8F5"/>
<path d="M27.5727 110.244H33.189V108.915H27.5727V110.244Z" fill="#DEE8F5"/>
<path d="M151.478 0H35.0307V83.953H151.478V0Z" fill="#DEE8F5"/>
<path d="M61.2839 58.2412H39.288V80.1387H61.2839V58.2412Z" fill="white"/>
<path d="M89.8773 58.2412H67.8814V80.1387H89.8773V58.2412Z" fill="white"/>
<path d="M118.471 58.2412H96.4749V80.1387H118.471V58.2412Z" fill="white"/>
<path d="M147.064 58.2412H125.068V80.1387H147.064V58.2412Z" fill="white"/>
<path d="M147.064 11.0469H39.288V54.0591H147.064V11.0469Z" fill="white"/>
<path d="M151.478 0H35.0307V6.91561H151.478V0Z" fill="#C1D8ED"/>
<path d="M74.0447 32.7735C74.0447 35.0276 73.3733 37.231 72.1154 39.1051C70.8576 40.9793 69.0697 42.44 66.9779 43.3026C64.8861 44.1652 62.5843 44.3908 60.3637 43.9511C58.143 43.5114 56.1032 42.426 54.5023 40.8321C52.9013 39.2383 51.811 37.2076 51.3693 34.9969C50.9275 32.7862 51.1543 30.4947 52.0207 28.4123C52.8872 26.3298 54.3544 24.5499 56.237 23.2977C58.1196 22.0454 60.3329 21.377 62.597 21.377C64.1016 21.3725 65.5923 21.6642 66.9832 22.2353C68.3742 22.8065 69.638 23.6458 70.7019 24.7049C71.7658 25.7641 72.6089 27.0222 73.1826 28.4069C73.7563 29.7917 74.0493 31.2757 74.0447 32.7735Z" fill="#C1D8ED"/>
<path d="M62.597 33.9483C65.1 33.9483 67.129 31.9283 67.129 29.4365C67.129 26.9448 65.1 24.9248 62.597 24.9248C60.0941 24.9248 58.065 26.9448 58.065 29.4365C58.065 31.9283 60.0941 33.9483 62.597 33.9483Z" fill="#DEE8F5"/>
<path d="M70.8465 40.6759C69.7783 41.7808 68.497 42.6597 67.0796 43.2601C65.6621 43.8605 64.1374 44.1699 62.597 44.1699C61.0566 44.1699 59.5319 43.8605 58.1145 43.2601C56.697 42.6597 55.4157 41.7808 54.3475 40.6759C55.8911 37.2415 59.0071 34.8945 62.597 34.8945C66.1869 34.8945 69.3029 37.2417 70.8465 40.6759Z" fill="#DEE8F5"/>
<path d="M101.821 21.4473H78.7095V28.4004H101.821V21.4473Z" fill="#DEE8F5"/>
<path d="M135.203 32.7021H78.7095V35.2318H135.203V32.7021Z" fill="#DEE8F5"/>
<path d="M135.203 39.5322H78.7095V42.0619H135.203V39.5322Z" fill="#DEE8F5"/>
<path d="M47.5163 73.3729C50.6228 73.3729 53.141 70.8659 53.141 67.7734C53.141 64.6808 50.6228 62.1738 47.5163 62.1738C44.4099 62.1738 41.8917 64.6808 41.8917 67.7734C41.8917 70.8659 44.4099 73.3729 47.5163 73.3729Z" fill="#C1D8ED"/>
<path d="M57.5742 68.3789H48.7076V77.2058H57.5742V68.3789Z" fill="#DEE8F5"/>
<path d="M85.5701 67.7734V76.6004H76.7036" fill="#DEE8F5"/>
<path d="M75.9033 62.1738H72.4796V74.7474H75.9033V62.1738Z" fill="#DEE8F5"/>
<path d="M81.1367 67.7733C82.1091 67.7733 82.8974 66.9885 82.8974 66.0204C82.8974 65.0524 82.1091 64.2676 81.1367 64.2676C80.1643 64.2676 79.376 65.0524 79.376 66.0204C79.376 66.9885 80.1643 67.7733 81.1367 67.7733Z" fill="#C1D8ED"/>
<path d="M113.152 67.1692V63.7607H100.522V67.1692H113.152Z" fill="#DEE8F5"/>
<path d="M109.777 75.7389C112.343 75.7389 114.423 73.6678 114.423 71.1131C114.423 68.5583 112.343 66.4873 109.777 66.4873C107.211 66.4873 105.13 68.5583 105.13 71.1131C105.13 73.6678 107.211 75.7389 109.777 75.7389Z" fill="#C1D8ED"/>
<path d="M142.381 67.2776V63.8691H129.751V67.2776H142.381Z" fill="#C1D8ED"/>
<path d="M138.873 75.2459C139.846 75.2459 140.634 74.4611 140.634 73.4931C140.634 72.525 139.846 71.7402 138.873 71.7402C137.901 71.7402 137.113 72.525 137.113 73.4931C137.113 74.4611 137.901 75.2459 138.873 75.2459Z" fill="#C1D8ED"/>
<path d="M135.096 76.0084L128.826 69.767L135.096 63.5254" fill="#DEE8F5"/>
</g>
<defs>
<clipPath id="clip0_8_8604">
<rect width="194" height="122" fill="white"/>
</clipPath>
</defs>
</svg>
